<svg xmlns="http://www.w3.org/2000/svg" width="1200" height="675" viewBox="0 0 1200 675" role="img" aria-labelledby="title desc">
  <title id="title">Illustration du module 5, leçon 6</title>
  <desc id="desc">Carte éducative originale pour Organisons notre vie entre le travail et les loisirs : Lecture documentaire et vocabulaire</desc>
  <rect width="1200" height="675" rx="48" fill="#DDF1F7"/>
  <circle cx="1030" cy="80" r="210" fill="#0F6E86" opacity=".10"/>
  <circle cx="110" cy="620" r="190" fill="#0F6E86" opacity=".08"/>
  <rect x="65" y="55" width="245" height="55" rx="27" fill="#0F6E86"/>
  <text x="187" y="91" text-anchor="middle" font-family="Arial, sans-serif" font-size="26" font-weight="700" fill="white">5e ANNÉE • M5</text>
  <g transform="translate(90 25)"><path d="M400 330 C520 130 720 170 710 360 C700 530 510 560 410 450 C500 390 570 330 640 245 C555 315 480 360 390 405 Z" fill="#0F6E86" opacity=".92"/></g>
  <text x="800" y="255" text-anchor="middle" font-family="Arial, sans-serif" font-size="28" font-weight="700" fill="#0F6E86">MODULE 5</text>
  <foreignObject x="655" y="280" width="485" height="150">
    <div xmlns="http://www.w3.org/1999/xhtml" style="font-family:Arial,sans-serif;font-size:34px;line-height:1.18;font-weight:700;color:#0F6E86;text-align:center;padding:8px">Organisons notre vie entre le travail et les loisirs</div>
  </foreignObject>
  <rect x="650" y="455" width="500" height="105" rx="24" fill="white" opacity=".92"/>
  <foreignObject x="680" y="470" width="440" height="75">
    <div xmlns="http://www.w3.org/1999/xhtml" style="font-family:Arial,sans-serif;font-size:23px;line-height:1.25;color:#263238;text-align:center">Leçon 6 • Lecture documentaire et vocabulaire</div>
  </foreignObject>
  <text x="1125" y="640" text-anchor="end" font-family="Arial, sans-serif" font-size="18" fill="#0F6E86">Illustration originale • fr-TN</text>
</svg>